<?xml version="1.0" encoding="utf-8"?>
<!-- Generator: Adobe Illustrator 19.0.0, SVG Export Plug-In . SVG Version: 6.00 Build 0)  -->
<svg version="1.1" id="Layer_1" xmlns="http://www.w3.org/2000/svg" xmlns:xlink="http://www.w3.org/1999/xlink" x="0px" y="0px"
	 viewBox="0 0 526.1 110.1" style="enable-background:new 0 0 526.1 110.1;" xml:space="preserve">
<style type="text/css">
	.st0{clip-path:url(#SVGID_2_);fill:#E5007D;}
</style>
<g>
	<defs>
		<rect id="SVGID_1_" width="526.1" height="110.1"/>
	</defs>
	<clipPath id="SVGID_2_">
		<use xlink:href="#SVGID_1_"  style="overflow:visible;"/>
	</clipPath>
	<path class="st0" d="M388.6,17.8c2.4,0,4.5-0.9,6.3-2.6c1.7-1.7,2.5-3.8,2.5-6.2c0-2.4-0.9-4.5-2.6-6.2c-1.7-1.7-3.7-2.6-6-2.6
		c-2.5,0-4.5,0.8-6.3,2.5c-1.8,1.7-2.7,3.8-2.7,6.3c0,2.4,0.9,4.5,2.6,6.2C384.1,17,386.1,17.8,388.6,17.8"/>
	<path class="st0" d="M171.6,79.6L148.7,1.1h-31v5.1h3c2.4,0,4.2,0.2,5.5,0.6c2.1,0.7,3.5,2.3,4.1,4.8c0.3,1.2,0.5,3.6,0.5,7.3v61.9
		c0,5.8-0.2,9.9-0.5,12.3c-0.5,3.2-1.7,5.6-3.4,7.1c-1.9,1.7-4,2.5-6.5,2.5h-2.6v5.2h33.1v-5.2h-2.1c-5.8,0-9.5-2.8-11-8.4
		c-0.5-2-0.8-6.5-0.8-13.5v-70l28.2,97.1h4.9l28.2-97.1V87c0,3.6-0.2,6.5-0.5,8.8c-0.2,1.9-0.9,3.4-2,4.5c-1.7,1.6-4.5,2.4-8.5,2.4
		H186v5.2h40.1v-5.2h-2.2c-5.5,0-8.9-1.6-10-4.9C213.3,96,213,92.4,213,87V22c0-3.6,0.2-6.6,0.5-8.9c0.2-1.9,0.9-3.3,2-4.4
		c1.6-1.7,4.4-2.5,8.4-2.5h2.2V1.1h-31.2L171.6,79.6z"/>
	<path class="st0" d="M260.3,31.9c-10,0-18.1,3.9-24.3,11.8c-5.4,6.9-8.1,16-8.1,27.3c0,11.3,2.7,20.4,8.1,27.3
		c6.2,7.9,14.1,11.8,23.9,11.8c10.3,0,18.6-3.9,24.7-11.8c5.4-6.9,8.1-16.1,8.1-27.5c0-11.2-2.7-20.3-8.1-27.1
		C278.3,35.8,270.2,31.9,260.3,31.9 M260.3,105c-5.7,0-9.9-2.7-12.5-8c-2.9-6.1-4.4-15-4.4-26.8c0-14.2,2.4-23.8,7.1-28.7
		c2.9-3,6.1-4.5,9.8-4.5c2.3,0,4.5,0.6,6.5,1.8c2.9,1.8,5.1,4.4,6.6,7.8c2.5,5.5,3.7,13.5,3.7,24C277.1,93.5,271.5,105,260.3,105"/>
	<path class="st0" d="M338.4,32.6c-5.2,0-9.8,1.6-13.8,4.8c-2.1,1.7-3.9,4.1-5.2,7.2V0l-22.8,1.1V6h1.2c3,0,5.1,0.7,6.2,2
		c1.3,1.4,1.9,5,1.9,10.8v73.3c0,6.6-0.2,10.9-0.7,13.1c-0.1,0.3-0.3,1.2-0.9,2.7h5.3c1.2-1.9,2.3-3.6,3.4-5.1
		c1.1-1.7,2.2-2.5,3.1-2.5c0.8,0,1.7,0.4,2.7,1.3c2.7,2.2,4.5,3.6,5.3,4.1c4,2.6,8.3,3.8,13.1,3.8c8.8,0,15.8-3.6,21.2-10.9
		c5.7-7.8,8.6-17.4,8.6-28.9c0-12.1-3.2-21.7-9.6-28.9C352.4,35.4,346.1,32.6,338.4,32.6 M335.6,103.9c-2.8,0-5.2-0.7-7.4-2.2
		c-2.7-1.8-4.7-4.2-6.1-7.2c-2.7-5.7-4-13.7-4-24.2c0-13.5,2.8-22.8,8.4-28c3-2.7,6.3-4.1,9.8-4.1c5,0,8.7,2.6,11.2,7.8
		c2.7,5.6,4,13.6,4,23.9C351.4,92.6,346.2,103.9,335.6,103.9"/>
	<path class="st0" d="M499.8,97.3c-3.7,4.4-8.3,6.6-13.8,6.6c-7.1,0-12.1-3.5-15-10.5c-2.1-5-3.2-12.6-3.2-22.9h43.8
		c-0.3-8.8-2-16.1-4.9-22c-5.5-11.1-13.8-16.6-24.8-16.6c-7.4,0-13.7,2.9-19,8.8c-6.7,7.5-10,17.4-10,29.8c0,13.5,3.3,23.8,10,31
		c5.4,5.7,12.3,8.6,20.7,8.6c11.4,0,20.5-6.7,27.2-20.3l-4.8-2.5C503.9,91.6,501.8,94.9,499.8,97.3 M469.5,51.3
		c2.6-9.2,6.9-13.8,13.1-13.8c5.5,0,9.5,3.7,12,11.2c1.4,4.2,2.1,9.6,2.1,16.1h-28.9C468,59.5,468.5,55,469.5,51.3"/>
	<path class="st0" d="M439.1,101c-1.3-1.5-2-5.2-2-11V0l-23.5,1.1V6h1.8c3,0,5.1,0.7,6.2,2c1.3,1.5,2,5.1,2,10.9v71.1
		c0,5.8-0.6,9.5-2,11c-1.1,1.3-3.2,2-6.2,2h-2.6v4.9h35v-4.9h-2.6C442.3,102.9,440.3,102.3,439.1,101"/>
	<path class="st0" d="M398.5,101c-1.3-1.5-2-5.1-2-11V33.1l-23.5,1.1v5h1.8c3,0,5.1,0.6,6.2,1.9c1.3,1.5,2,5.1,2,10.9v38
		c0,5.8-0.7,9.5-2,11c-1.1,1.3-3.2,2-6.2,2h-2.6v4.9h35v-4.9h-2.6C401.7,102.9,399.6,102.3,398.5,101"/>
	<polygon class="st0" points="65.9,50.2 65.9,71.8 87.5,71.8 87.5,50.2 76.3,50.2 	"/>
	<path class="st0" d="M1.1,1.1L0,38.8l5.7,1c1.1-11.1,4-19.3,8.7-24.7c5-5.6,11.9-8.6,20.8-8.8V85c0,6.9-1,11.3-3,13.4
		c-1.7,1.8-4.6,2.8-8.7,3.2c-1.2,0.1-3.3,0.1-6.2,0.1v6l52.7,0v-6c-2.9,0-5-0.1-6.2-0.1c-4.1-0.4-7-1.5-8.7-3.2c-2-2.1-3-6.5-3-13.4
		V6.2c8.9,0.3,15.8,3.2,20.8,8.8c4.8,5.4,7.7,13.6,8.7,24.7l5.7-1L86.5,1.1H1.1z"/>
	<polygon class="st0" points="21.6,50.2 10.9,50.2 0,50.2 0,71.8 21.6,71.8 	"/>
	<path class="st0" d="M513.9,40.5V33h-2.3v-1.1h6V33h-2.4v7.5H513.9z M518.6,40.5v-8.6h1.7l2.1,6.9l2-6.9h1.7v8.6h-1.2v-6.8
		l-1.9,6.8h-1.3l-2-6.6v6.6H518.6z"/>
</g>
</svg>
