<?xml version="1.0" encoding="UTF-8" standalone="no"?>
<!-- Created with Inkscape (http://www.inkscape.org/) -->

<svg
   xmlns:dc="http://purl.org/dc/elements/1.1/"
   xmlns:cc="http://creativecommons.org/ns#"
   xmlns:rdf="http://www.w3.org/1999/02/22-rdf-syntax-ns#"
   xmlns:svg="http://www.w3.org/2000/svg"
   xmlns="http://www.w3.org/2000/svg"
   version="1.1"
   width="100%"
   height="100%"
   viewBox="0 0 81 40"
   id="Layer_1"
   xml:space="preserve">

  <path
   d="M 8.1,18.666667 H 0 v 8 h 8.1 v -8 z m 17.55,8 h 8.1 v -8 h -8.1 v 8 z m 22.95,0 h 8.1 v -8 h -8.1 v 8 z m 24.3,0 H 81 v -8 h -8.1 v 8 z M 0.4077,0.0013333 0.00135,14.112 2.14785,14.48 C 2.55285,10.325333 3.6558,7.2373333 5.4675,5.2253333 7.36965,3.1186667 9.99675,2.016 13.36365,1.9226667 V 31.442667 c 0,2.582666 -0.3645,4.256 -1.1259,5.029333 -0.64665,0.658667 -1.7415,1.065333 -3.28455,1.214667 C 8.4942,37.721333 7.71525,37.74 6.60825,37.74 V 40 H 26.6031 v -2.258667 c -1.10565,0 -1.88595,-0.02 -2.34225,-0.05333 -1.5444,-0.149333 -2.63925,-0.556 -3.2886,-1.214667 C 20.21085,35.7 19.8423,34.029333 19.8423,31.444 V 1.92 c 3.37365,0.096 5.9994,1.1973333 7.9056,3.304 1.81035,2.012 2.91195,5.1 3.31425,9.254667 L 33.2127,14.112 32.805,0 H 0.4077 v 0.00133 z"
   id="path3063"
   style="fill:#e11075" />
</svg>