<?xml version="1.0" standalone="no"?>
<!DOCTYPE svg PUBLIC "-//W3C//DTD SVG 1.1//EN" "http://www.w3.org/Graphics/SVG/1.1/DTD/svg11.dtd">
<svg width="94px" height="46px" version="1.1" xmlns="http://www.w3.org/2000/svg" xmlns:xlink="http://www.w3.org/1999/xlink" xml:space="preserve" style="fill-rule:evenodd;clip-rule:evenodd;stroke-linejoin:round;stroke-miterlimit:1.41421;">
    <g id="Layer_1">
        <g id="path3063">
            <path d="M9.4,21.6626L0,21.6626L0,30.9465L9.4,30.9465ZM29.7667,30.9465L39.1667,30.9465L39.1667,21.6626L29.7667,21.6626ZM56.4,30.9465L65.8,30.9465L65.8,21.6626L56.4,21.6626ZM84.6,30.9465L94,30.9465L94,21.6626L84.6,21.6626ZM0.473133,0.00154729L0.00156667,16.3769L2.49257,16.804C2.96257,11.9825 4.24253,8.39888 6.345,6.06397C8.55243,3.61919 11.6012,2.33956 15.5084,2.23124L15.5084,36.489C15.5084,39.4862 15.0854,41.4281 14.2018,42.3255C13.4514,43.0899 12.1808,43.5618 10.3901,43.7351C9.85747,43.7754 8.9535,43.797 7.66883,43.797L7.66883,46.4198L30.8727,46.4198L30.8727,43.7986C29.5896,43.7986 28.6841,43.7754 28.1546,43.7367C26.3623,43.5634 25.0917,43.0915 24.3382,42.3271C23.4546,41.4296 23.0269,39.4908 23.0269,36.4906L23.0269,2.22815C26.942,2.33956 29.9891,3.61765 32.2013,6.06242C34.3022,8.39733 35.5806,11.9809 36.0474,16.8024L38.5431,16.3769L38.07,0L0.473133,0Z" style="fill:white;fill-rule:nonzero;"/>
        </g>
    </g>
</svg>
