<?xml version="1.0" encoding="UTF-8"?>
<svg xmlns="http://www.w3.org/2000/svg" width="0" height="0">
    <symbol id="angle-down"
        xmlns="http://www.w3.org/2000/svg"
        xmlns:xlink="http://www.w3.org/1999/xlink" viewBox="0 0 11.274 7.547">
        <defs>
            <clipPath id="clip-path">
                <path d="M11.3.761a.962.962,0,0,0-1.411,0L6,4.945,2.116.76A.962.962,0,0,0,.7.761L.629.843a1,1,0,0,0,0,1.359L6,8l5.371-5.8a1,1,0,0,0,0-1.359Z" transform="translate(5 7)" fill="rgba(0,0,0,0.7)"/>
            </clipPath>
        </defs>
        <g transform="translate(-5.363 -7.453)">
            <path d="M11.3.761a.962.962,0,0,0-1.411,0L6,4.945,2.116.76A.962.962,0,0,0,.7.761L.629.843a1,1,0,0,0,0,1.359L6,8l5.371-5.8a1,1,0,0,0,0-1.359Z" transform="translate(5 7)" fill="rgba(0,0,0,0.7)"/>
            <g clip-path="url(#clip-path)">
                <g>
                    <rect width="22" height="22"/>
                </g>
            </g>
        </g>
    </symbol>
    <symbol xmlns="http://www.w3.org/2000/svg" viewBox="0 0 14.588 14.588" id="angle-right">
        <path d="M94.251,147.507v8.315H85.936" transform="translate(-163.655 -36.243) rotate(-45)" fill="none" stroke-linecap="round" stroke-linejoin="round" stroke-width="2"/>
    </symbol>
    <symbol xmlns="http://www.w3.org/2000/svg" viewBox="0 0 23.281 23.285" id="instagram">
        <g transform="translate(-0.449)">
            <path d="M23.67,6.846a8.508,8.508,0,0,0-.541-2.825A5.965,5.965,0,0,0,19.722.614,8.53,8.53,0,0,0,16.9.073C15.65.014,15.255,0,12.093,0s-3.557.014-4.8.068A8.511,8.511,0,0,0,4.47.61,5.681,5.681,0,0,0,2.4,1.956,5.733,5.733,0,0,0,1.063,4.017,8.531,8.531,0,0,0,.521,6.841C.462,8.088.449,8.483.449,11.645s.014,3.557.068,4.8a8.508,8.508,0,0,0,.541,2.825,5.964,5.964,0,0,0,3.407,3.407,8.531,8.531,0,0,0,2.825.541c1.242.055,1.638.068,4.8.068s3.557-.014,4.8-.068a8.506,8.506,0,0,0,2.825-.541,5.956,5.956,0,0,0,3.407-3.407,8.537,8.537,0,0,0,.541-2.825c.055-1.242.068-1.638.068-4.8s0-3.557-.059-4.8Zm-2.1,9.507a6.382,6.382,0,0,1-.4,2.161,3.863,3.863,0,0,1-2.211,2.211,6.4,6.4,0,0,1-2.161.4c-1.228.055-1.6.068-4.7.068s-3.48-.014-4.7-.068a6.379,6.379,0,0,1-2.161-.4A3.583,3.583,0,0,1,3.9,19.855a3.62,3.62,0,0,1-.869-1.337,6.406,6.406,0,0,1-.4-2.161c-.055-1.228-.068-1.6-.068-4.7s.014-3.48.068-4.7a6.379,6.379,0,0,1,.4-2.161A3.539,3.539,0,0,1,3.9,3.453a3.615,3.615,0,0,1,1.337-.869,6.409,6.409,0,0,1,2.161-.4c1.228-.055,1.6-.068,4.7-.068s3.48.014,4.7.068a6.382,6.382,0,0,1,2.161.4,3.58,3.58,0,0,1,1.337.869,3.619,3.619,0,0,1,.869,1.337,6.408,6.408,0,0,1,.4,2.161c.055,1.228.068,1.6.068,4.7s-.014,3.471-.068,4.7Zm0,0"/>
            <path d="M130.931,124.5a5.982,5.982,0,1,0,5.982,5.982A5.983,5.983,0,0,0,130.931,124.5Zm0,9.862a3.88,3.88,0,1,1,3.88-3.88A3.881,3.881,0,0,1,130.931,134.362Zm0,0" transform="translate(-118.837 -118.837)"/>
            <path d="M365.243,90a1.4,1.4,0,1,1-1.4-1.4A1.4,1.4,0,0,1,365.243,90Zm0,0" transform="translate(-345.535 -84.571)"/>
        </g>
    </symbol>
    <symbol xmlns="http://www.w3.org/2000/svg" viewBox="0 0 12.001 24" id="facebook">
        <path d="M16,3.985h2.191V.169A28.292,28.292,0,0,0,15,0C11.837,0,9.673,1.987,9.673,5.639V9H6.187v4.266H9.673V24h4.274V13.267h3.345L17.823,9H13.946V6.062c0-1.233.333-2.077,2.051-2.077Z" transform="translate(-6.187)"/>
    </symbol>
    <symbol xmlns="http://www.w3.org/2000/svg" viewBox="0 0 11.013 20.013" id="angle-left">
        <path d="M0,9.573a1.041,1.041,0,0,0,.278.633L8.1,18.65a1.106,1.106,0,0,0,1.033.327,1.076,1.076,0,0,0,.808-.706,1.033,1.033,0,0,0-.225-1.033L2.549,9.5,9.721,1.762A1.033,1.033,0,0,0,9.947.729,1.076,1.076,0,0,0,9.138.023,1.106,1.106,0,0,0,8.1.35L.281,8.794A1.037,1.037,0,0,0,0,9.573Z" transform="translate(0.501 0.507)" stroke="#fff" stroke-miterlimit="10" stroke-width="1"/>
    </symbol>
</svg>