<?xml version="1.0" encoding="utf-8"?>
<!-- Generator: Adobe Illustrator 25.0.0, SVG Export Plug-In . SVG Version: 6.00 Build 0)  -->
<svg version="1.1" id="Layer_1" xmlns="http://www.w3.org/2000/svg" xmlns:xlink="http://www.w3.org/1999/xlink" x="0px" y="0px"
	 viewBox="0 0 23.1 34.1" style="enable-background:new 0 0 23.1 34.1;" xml:space="preserve">
<style type="text/css">
	.st0{fill:#FFF3F8;}
	.st1{fill:#E20074;}
</style>
<g id="Notifikace" transform="translate(-945.906 -1572)">
	<g id="Ikona_Telefon" transform="translate(917.02 1557.667)">
		<g id="Group_943" transform="translate(28.886 16.274)">
			<g id="Smartphone" transform="translate(0 0)">
				<rect id="Rectangle_148" x="1.1" y="0.1" class="st0" width="16" height="31"/>
				<path id="Path_332" class="st1" d="M5.7,29.1H2.6c-0.3,0-0.5,0.2-0.5,0.5s0.2,0.5,0.5,0.5h3.1c0.3,0,0.5-0.2,0.5-0.5
					S6,29.1,5.7,29.1z"/>
				<path id="Path_333" class="st1" d="M7.8,29.1H7.2c-0.3,0-0.5,0.2-0.5,0.5s0.2,0.5,0.5,0.5h0.5c0.3,0,0.5-0.2,0.5-0.5
					S8.1,29.1,7.8,29.1z"/>
			</g>
		</g>
		<g id="Group_944" transform="translate(33.929 28.027)">
			<path id="Path_343" class="st1" d="M5.6,4.1V6h1.8V4.1H5.6z"/>
			<path id="Path_344" class="st1" d="M0.1,0L0,3.2l0.5,0.1c0-0.8,0.3-1.5,0.7-2.1C1.7,0.7,2.3,0.4,3,0.4v6.6c0,0.4,0,0.8-0.3,1.1
				C2.5,8.4,2.3,8.5,2,8.5c-0.1,0-0.3,0-0.5,0V9h4.4V8.5c-0.2,0-0.4,0-0.5,0c-0.3,0-0.5-0.1-0.7-0.3C4.4,7.9,4.4,7.5,4.4,7.1V0.4
				c0.7,0,1.3,0.3,1.8,0.7c0.5,0.6,0.7,1.3,0.7,2.1l0.5-0.1L7.3,0L0.1,0z"/>
			<path id="Path_345" class="st1" d="M1.8,4.1H0V6h1.8L1.8,4.1z"/>
		</g>
	</g>
	<path class="st1" d="M962.5,1572c-1.9,0-3.5,0.8-4.7,2h-9.3c-1.4,0-2.6,1.2-2.6,2.6v26.9c0,1.4,1.2,2.6,2.6,2.6h12.4
		c1.4,0,2.6-1.2,2.6-2.6v-18.6c3.1-0.5,5.5-3.2,5.5-6.4C969,1574.9,966.1,1572,962.5,1572z M957,1575.1c-0.3,0.5-0.5,1-0.7,1.6h-4.8
		l-0.3-1.6L957,1575.1z M960.9,1605.1h-12.4c-0.9,0-1.6-0.7-1.6-1.6v-26.9c0-0.9,0.7-1.6,1.6-1.6h1.6l0.4,2.2c0,0.2,0.3,0.4,0.5,0.4
		h5c0,0.3-0.1,0.6-0.1,0.9c0,3.6,2.9,6.5,6.5,6.5l0,18.5C962.5,1604.4,961.8,1605.1,960.9,1605.1z M964.5,1580.8v1.2h-4.1
		c0-0.7,0.1-1.3,0.3-1.7c0.1-0.3,0.3-0.5,0.5-0.8c0.2-0.2,0.6-0.5,1.1-0.9c0.3-0.2,0.5-0.5,0.7-0.7c0.1-0.2,0.2-0.5,0.2-0.7
		c0-0.1,0-0.2,0-0.3c0-0.2-0.1-0.3-0.3-0.4c-0.1-0.1-0.3-0.1-0.5-0.1c-0.2,0-0.4,0.1-0.5,0.2c-0.1,0.2-0.2,0.4-0.2,0.7h-1.3
		c0-0.6,0.2-1,0.5-1.4c0.4-0.5,0.9-0.7,1.5-0.7c0.3,0,0.6,0,0.8,0.1c0.4,0.1,0.7,0.4,0.9,0.7c0.2,0.3,0.3,0.7,0.3,1.1
		c0,0.5-0.1,0.9-0.4,1.2c-0.2,0.3-0.7,0.7-1.3,1.2c-0.4,0.3-0.7,0.5-0.8,0.7c-0.1,0.2-0.2,0.4-0.3,0.6H964.5z"/>
</g>
</svg>
