<svg width="160" height="160" viewBox="0 0 160 160" fill="none" xmlns="http://www.w3.org/2000/svg">
<path fill-rule="evenodd" clip-rule="evenodd" d="M70.473 51.0502C68.3989 52.9889 67.0603 55.0913 66.4573 57.3576C66.1652 58.4549 66.3531 59.5969 67.0208 60.7836C67.6884 61.9703 68.6902 62.7413 70.0261 63.0968C72.2923 63.6999 74.1896 62.7616 75.7181 60.2817C77.2624 57.9339 78.831 56.2631 80.4238 55.2692C82.0166 54.2754 84.125 54.1276 86.7491 54.8259C88.9915 55.4226 90.6478 56.5658 91.718 58.2556C92.7883 59.9453 93.0694 61.7444 92.5616 63.6528C92.3013 64.6309 91.8275 65.4754 91.1402 66.1866C90.4528 66.8977 89.6787 67.5028 88.8179 68.0017C87.9571 68.5007 86.5856 69.215 84.7034 70.1446C82.5557 71.2079 80.8214 72.1577 79.5004 72.994C78.1795 73.8303 77.0137 74.8995 76.003 76.2015C74.9924 77.5036 74.2205 79.1565 73.6872 81.1603C73.2619 82.7586 73.3647 84.076 73.9958 85.1124C74.6268 86.1488 75.5625 86.8321 76.803 87.1622C79.1885 87.797 80.938 86.9343 82.0514 84.5739C82.6249 83.4749 83.0391 82.7102 83.2941 82.2799C83.5491 81.8497 83.8578 81.4337 84.2201 81.032C84.5825 80.6303 85.0827 80.2142 85.7209 79.7838C86.3591 79.3533 87.1822 78.8762 88.19 78.3526C91.8225 76.5093 94.3529 75.1838 95.7812 74.3761C97.2095 73.5684 98.5383 72.5106 99.7676 71.2029C100.997 69.8952 101.881 68.2275 102.421 66.1998C103.106 63.6234 103.02 61.0459 102.16 58.4672C101.301 55.8884 99.7175 53.6086 97.4092 51.6277C95.1009 49.6469 92.2173 48.1962 88.7582 47.2757C85.0368 46.2854 81.5775 46.1823 78.3802 46.9663C75.1828 47.7503 72.5471 49.1116 70.473 51.0502ZM71.1717 110.936C75.5081 112.09 79.9589 109.51 81.1129 105.174C82.2668 100.837 79.6869 96.3867 75.3505 95.2327C71.0141 94.0788 66.5633 96.6586 65.4094 100.995C64.2554 105.331 66.8353 109.782 71.1717 110.936Z" fill="#E20074"/>
<path fill-rule="evenodd" clip-rule="evenodd" d="M65.5998 131.874C94.5091 139.567 124.181 122.368 131.874 93.4588C139.567 64.5495 122.368 34.8774 93.4587 27.1844C64.5494 19.4913 34.8773 36.6905 27.1843 65.5999C19.4912 94.5092 36.6904 124.181 65.5998 131.874ZM67.6892 124.023C43.1163 117.483 28.4969 92.2622 35.036 67.6893C41.5751 43.1164 66.7964 28.497 91.3693 35.0361C115.942 41.5752 130.562 66.7965 124.022 91.3694C117.483 115.942 92.2621 130.562 67.6892 124.023Z" fill="#E20074"/>
</svg>
