<svg width="239" height="239" viewBox="0 0 239 239" fill="none" xmlns="http://www.w3.org/2000/svg">
<path fill-rule="evenodd" clip-rule="evenodd" d="M57.689 56.6987L112.261 31.76C123.563 26.595 136.912 31.5702 142.077 42.8723L191.954 152.016C197.119 163.318 192.144 176.667 180.842 181.832L126.271 206.771C114.968 211.936 101.619 206.96 96.4541 195.658L46.5766 86.5151C41.4117 75.213 46.3868 61.8637 57.689 56.6987ZM62.365 66.9309C56.7139 69.5134 54.2263 76.188 56.8088 81.8391L106.686 190.982C109.269 196.633 115.943 199.121 121.595 196.538L176.166 171.6C181.817 169.017 184.305 162.343 181.722 156.692L131.845 47.5483C129.262 41.8973 122.588 39.4097 116.937 41.9922L103.294 48.2269L107.554 57.5495C107.784 58.0518 107.562 58.6451 107.06 58.8747L81.5934 70.5128C81.0911 70.7423 80.4978 70.5212 80.2682 70.0189L76.0079 60.6962L62.365 66.9309Z" fill="#E20074"/>
<rect x="127.444" y="173.251" width="30" height="11.25" rx="1" transform="rotate(-24.56 127.444 173.251)" fill="#E20074"/>
</svg>
