<svg width="225" height="224" viewBox="0 0 225 224" fill="none" xmlns="http://www.w3.org/2000/svg">
<path fill-rule="evenodd" clip-rule="evenodd" d="M160.412 86.9239L176.972 91.7553C188.852 95.2213 195.735 107.777 192.269 119.657L171.263 191.655C167.797 203.534 155.242 210.418 143.362 206.952L35.3648 175.443C23.485 171.977 16.6011 159.422 20.0671 147.542L41.0732 75.5438C44.5392 63.6641 57.0948 56.7802 68.9745 60.2462L85.5341 65.0776L94.9828 79.5534L65.8236 71.0459C59.7037 69.2604 53.6584 72.5749 51.8729 78.6947L30.8668 150.693C29.0813 156.813 32.3958 162.858 38.5157 164.644L146.513 196.153C152.633 197.938 158.678 194.624 160.464 188.504L181.47 116.506C183.255 110.386 179.941 104.341 173.821 102.555L144.662 94.0475L160.412 86.9239ZM85.919 125.348C90.293 126.624 95.1084 123.307 96.6746 117.938C98.2408 112.57 95.9646 107.184 91.5906 105.908C87.2166 104.632 82.4012 107.949 80.835 113.317C79.2688 118.685 81.545 124.071 85.919 125.348ZM129.118 137.951C133.492 139.227 138.307 135.91 139.874 130.542C141.44 125.174 139.164 119.788 134.79 118.512C130.416 117.236 125.6 120.553 124.034 125.921C122.468 131.289 124.744 136.675 129.118 137.951ZM77.5486 138.783C80.2727 137.289 83.6578 138.326 85.5772 140.769C94.5134 152.142 109.804 156.603 123.454 151.82C126.386 150.793 129.798 151.739 131.291 154.463C132.785 157.187 131.794 160.644 128.907 161.791C109.729 169.413 87.6886 162.983 75.6179 146.244C73.8009 143.724 74.8246 140.276 77.5486 138.783Z" fill="#E20074"/>
<path fill-rule="evenodd" clip-rule="evenodd" d="M159.243 74.8638C155.554 62.0685 145.415 51.2977 131.376 47.2015C117.336 43.1053 102.996 46.7341 92.8998 55.8982L86.7206 46.2827C99.6065 35.5888 117.247 31.3603 134.526 36.4017C151.806 41.4432 164.405 54.4943 169.624 70.0797L159.243 74.8638ZM138.483 84.4322L148.863 79.648C146.344 69.5378 138.665 61.0472 128.225 58.0013C117.785 54.9554 106.385 57.8795 99.1843 65.1539L105.364 74.7694C110.134 69.1298 117.514 66.5954 125.074 68.801C132.634 71.0067 137.388 77.4721 138.483 84.4322ZM127.022 88.9011C125.862 92.8775 121.698 95.1605 117.722 94.0003C113.745 92.8402 111.462 88.6762 112.622 84.6999C113.782 80.7235 117.946 78.4405 121.923 79.6007C125.899 80.7608 128.182 84.9247 127.022 88.9011Z" fill="#E20074"/>
</svg>
