<svg width="80" height="80" viewBox="0 0 80 80" fill="none" xmlns="http://www.w3.org/2000/svg">
<path fill-rule="evenodd" clip-rule="evenodd" d="M66.6668 26.667L13.3335 26.667C7.81065 26.667 3.3335 31.1441 3.3335 36.667L3.3335 40.0003C3.3335 42.962 4.621 45.6229 6.66683 47.454V70.0003C6.66683 75.5232 11.144 80.0003 16.6668 80.0003H63.3335C68.8563 80.0003 73.3335 75.5232 73.3335 70.0003V47.454C75.3793 45.6229 76.6668 42.962 76.6668 40.0003V36.667C76.6668 31.1441 72.1897 26.667 66.6668 26.667ZM11.6668 70.0003V49.8621C12.2088 49.953 12.7656 50.0003 13.3335 50.0003H37.5002V75.0003H16.6668C13.9054 75.0003 11.6668 72.7617 11.6668 70.0003ZM42.5002 75.0003H63.3335C66.0949 75.0003 68.3335 72.7617 68.3335 70.0003V49.8621C67.7915 49.953 67.2347 50.0003 66.6668 50.0003H42.5002V75.0003ZM42.5002 45.0003H66.6668C69.4283 45.0003 71.6668 42.7617 71.6668 40.0003V36.667C71.6668 33.9056 69.4283 31.667 66.6668 31.667L42.5002 31.667V45.0003ZM37.5002 31.667H13.3335C10.5721 31.667 8.3335 33.9056 8.3335 36.667V40.0003C8.3335 42.7617 10.5721 45.0003 13.3335 45.0003H37.5002V31.667Z" fill="#E20074"/>
<path fill-rule="evenodd" clip-rule="evenodd" d="M39.1668 11.0326C37.2694 8.82667 34.2917 6.54363 30.234 4.18343C29.1989 3.5815 28.0551 3.19012 26.8683 3.03188C21.897 2.36904 17.3296 5.86176 16.6667 10.8331L16.5096 12.0115C16.4512 12.4496 16.4219 12.8911 16.4219 13.3331C16.4219 18.8559 20.899 23.3331 26.4219 23.3331H36.6669H41.6667L51.9118 23.3331C57.4346 23.3331 61.9118 18.8559 61.9118 13.3331C61.9118 12.8911 61.8825 12.4496 61.8241 12.0115L61.667 10.8331C61.0041 5.86176 56.4367 2.36904 51.4654 3.03188C50.2785 3.19012 49.1347 3.5815 48.0997 4.18343C44.0419 6.54363 41.0643 8.82667 39.1668 11.0326ZM26.2075 7.98785C23.9733 7.68996 21.9207 9.25961 21.6228 11.4937L21.4657 12.6721C21.4365 12.8912 21.4219 13.1119 21.4219 13.3329C21.4219 16.0944 23.6605 18.3329 26.4219 18.3329H36.6667V16.6663C36.6667 15.1011 33.9385 12.1223 27.7202 8.5054C27.2549 8.23485 26.7408 8.05896 26.2075 7.98785ZM56.7108 11.4937C56.4129 9.25961 54.3603 7.68996 52.1262 7.98785C51.5928 8.05896 51.0787 8.23485 50.6135 8.5054C44.3951 12.1223 41.6669 15.1011 41.6669 16.6663V18.3329H51.9118C54.6732 18.3329 56.9118 16.0944 56.9118 13.3329C56.9118 13.1119 56.8971 12.8912 56.8679 12.6721L56.7108 11.4937Z" fill="#E20074"/>
</svg>
